<svg width="26" height="26" viewBox="0 0 26 26" fill="none" xmlns="http://www.w3.org/2000/svg">
<g clip-path="url(#clip0_1605_979)">
<path d="M7.01306 14.4864C7.01443 14.4919 7.0158 14.4967 7.01716 14.5022C7.14769 15.0448 7.25089 15.8553 7.12856 16.9071C6.99803 18.0333 7.50443 19.139 8.43454 19.7876L9.70293 20.6726C9.70293 20.6726 9.2676 24.0021 10.4759 25.7544V25.7551C4.5043 24.5796 0 19.316 0 13C0 9.32267 1.5274 6.00134 3.98218 3.63745C3.01517 5.58378 2.03175 8.58869 3.41564 11.105C4.04915 12.2565 5.04897 13.0035 6.15949 13.4832C6.58525 13.6664 6.90372 14.0368 7.01306 14.4864Z" fill="#4FD1C5"/>
<path d="M13.0003 0.000366211C15.8337 0.000366211 18.4552 0.906556 20.5909 2.44626C20.5909 2.44626 19.4722 4.16228 19.5173 5.87488C19.5275 6.28424 19.848 6.61911 20.256 6.66216C20.2847 6.6649 20.3141 6.66695 20.3428 6.66695C20.6538 6.66695 20.9408 6.49063 21.0816 6.20702C21.3809 5.60699 22.1689 4.87985 24.1582 6.32798L24.1589 6.32729C24.3072 6.574 24.4473 6.82618 24.5785 7.08382C24.5785 7.08382 23.8842 7.23964 22.9541 7.12482C22.6958 7.0927 22.4347 7.15558 22.2235 7.30729C22.0766 7.41322 21.9078 7.56562 21.7205 7.75355C20.7713 8.70758 20.6141 10.6922 20.6141 10.6922C20.5957 11.1063 20.6141 11.5642 20.6804 12.0699C20.8287 13.1934 21.8586 13.9862 22.9801 13.8222C22.9965 13.8201 23.0129 13.8174 23.0293 13.8153C23.8384 13.6896 24.5772 14.2999 24.6236 15.1172C24.6653 15.8546 24.8225 16.6904 25.2373 17.3957H25.238C23.4359 22.4118 18.637 25.9997 13.0003 25.9997C12.1365 25.9997 11.2925 25.9156 10.4759 25.755V25.7543C10.4759 25.7543 10.8415 25.412 11.801 24.4156L13.8225 22.2717C14.4061 21.6307 14.9884 20.9685 15.4948 20.35C16.3948 19.2504 16.1105 17.6075 14.8961 16.8701C13.7623 16.1819 12.4263 15.2935 11.5659 14.4673C11.1333 14.0525 10.538 13.8536 9.94212 13.9178C9.17671 14.0005 8.09215 14.1673 7.01716 14.5021C7.20168 12.6713 4.0307 11.0366 4.85078 9.60147C5.29499 8.82308 6.04127 8.80872 6.63104 8.95839C7.10054 9.0773 7.59327 8.90645 7.89807 8.5299C8.61974 7.63943 10.1963 6.80499 11.3486 6.27741C12.1037 5.93229 12.3477 4.98031 11.8515 4.31536C10.3296 2.27199 8.17348 0.926375 8.17348 0.926375C9.66603 0.329082 11.2946 0.000366211 13.0003 0.000366211ZM13.53 4.2026L15.1018 2.1524C15.1018 2.1524 14.4184 1.53734 11.9582 1.33232C11.4668 1.29131 13.325 2.63078 13.53 4.2026Z" fill="#4FD1C5"/>
<path d="M24.1589 6.32726L24.1582 6.32794C22.1689 4.87982 21.3809 5.60695 21.0816 6.20698C20.9408 6.49059 20.6538 6.66691 20.3428 6.66691C20.3141 6.66691 20.2847 6.66486 20.256 6.66212C19.848 6.61907 19.5275 6.2842 19.5173 5.87485C19.4722 4.16225 20.5909 2.44623 20.5909 2.44623C22.0281 3.4809 23.2452 4.80259 24.1589 6.32726Z" fill="#E2E8F0"/>
<path d="M26 13C26 14.5424 25.7314 16.0227 25.238 17.3956H25.2373C24.8225 16.6904 24.6653 15.8546 24.6236 15.1172C24.5772 14.2998 23.8384 13.6896 23.0293 13.8153C23.0129 13.8174 22.9965 13.8201 22.9801 13.8221C21.8586 13.9862 20.8287 13.1934 20.6804 12.0699C20.6141 11.5642 20.5957 11.1063 20.6141 10.6922C20.6141 10.6922 20.7713 8.70756 21.7205 7.75353C21.9078 7.5656 22.0766 7.4132 22.2235 7.30727C22.4347 7.15556 22.6958 7.09269 22.9541 7.12481C23.8842 7.23962 24.5785 7.0838 24.5785 7.0838C25.4875 8.85859 26 10.8692 26 13Z" fill="#E2E8F0"/>
<path d="M15.1018 2.15236L13.53 4.20256C13.325 2.63074 11.4668 1.29127 11.9582 1.33228C14.4184 1.5373 15.1018 2.15236 15.1018 2.15236Z" fill="#E2E8F0"/>
<path d="M11.8515 4.31538C12.3477 4.98033 12.1037 5.93231 11.3486 6.27742C10.1963 6.80501 8.61974 7.63944 7.89806 8.52991C7.59327 8.90647 7.10054 9.07732 6.63104 8.95841C6.04126 8.80874 5.29499 8.82309 4.85078 9.60149C4.0307 11.0366 7.20168 12.6713 7.01716 14.5022C7.01579 14.4967 7.01443 14.4919 7.01306 14.4864C6.90372 14.0368 6.58525 13.6664 6.15949 13.4832C5.04896 13.0035 4.04915 12.2565 3.41564 11.105C2.03175 8.58869 3.01516 5.58377 3.98218 3.63744C5.18086 2.48181 6.60165 1.55512 8.17348 0.926392C8.17348 0.926392 10.3296 2.27201 11.8515 4.31538Z" fill="#E2E8F0"/>
<path d="M14.8961 16.8701C16.1105 17.6075 16.3948 19.2504 15.4947 20.35C14.9883 20.9685 14.4061 21.6307 13.8225 22.2717L11.801 24.4156C10.8415 25.412 10.4758 25.7543 10.4758 25.7543C9.26759 24.0021 9.70292 20.6726 9.70292 20.6726L8.43453 19.7876C7.50442 19.139 6.99802 18.0333 7.12855 16.907C7.25087 15.8553 7.14768 15.0448 7.01715 14.5021C8.09214 14.1673 9.1767 14.0005 9.94211 13.9178C10.538 13.8536 11.1333 14.0525 11.5659 14.4673C12.4263 15.2935 13.7623 16.1819 14.8961 16.8701Z" fill="#E2E8F0"/>
<path opacity="0.3" d="M13.0003 0.000854492C13.3967 0.000854492 13.789 0.0186229 14.1758 0.0534764C7.55022 0.650769 2.35773 6.21912 2.35773 13.0005C2.35773 19.7833 7.55227 25.3523 14.1799 25.9475C13.7917 25.9824 13.3981 26.0002 13.0003 26.0002C5.82053 26.0002 0 20.1803 0 13.0005C0 5.8207 5.82053 0.000854492 13.0003 0.000854492Z" fill="#808080"/>
</g>
<defs>
<clipPath id="clip0_1605_979">
<rect width="26" height="26" fill="white"/>
</clipPath>
</defs>
</svg>
